<svg id="logo" xmlns="http://www.w3.org/2000/svg" viewBox="0 0 1280 640"><defs><style>.cls-1{fill:#0c0816;}.cls-2,.cls-6,.cls-7,.cls-9{fill:none;}.cls-2,.cls-4,.cls-6{stroke:#c2b0e9;}.cls-2,.cls-4,.cls-6,.cls-7{stroke-miterlimit:10;}.cls-2,.cls-4,.cls-7,.cls-9{stroke-width:5px;}.cls-3{fill:#ccc;}.cls-12,.cls-4,.cls-5,.cls-8{fill:#c2b0e9;}.cls-5{font-size:64px;font-family:FiraCode-Retina, Fira Code;}.cls-6{stroke-width:5px;}.cls-7{stroke:#ccc;}.cls-10,.cls-8{font-size:185px;}.cls-8{font-family:FiraCode-Regular, Fira Code;}.cls-9{stroke:#b4e2f9;}.cls-10,.cls-13{fill:#b4e2f9;}.cls-10{font-family:FiraCode-SemiBold, Fira Code;font-weight:600;}.cls-11{fill:#5f77ef;}</style></defs><rect id="background" class="cls-1" width="1280" height="640"/><g id="molecule"><polygon class="cls-2" points="191.19 74.27 61.29 149.27 61.29 299.27 191.19 374.27 321.09 299.27 321.09 149.27 191.19 74.27"/><path class="cls-3" d="M191.19,270.91l-40.4-23.32V200.94l40.4-23.32,40.4,23.32v46.65Zm-35.4-26.21,35.4,20.44,35.4-20.44V203.83l-35.4-20.43-35.4,20.43Z"/><line class="cls-4" x1="191.19" y1="374.16" x2="191.19" y2="524.16"/><line class="cls-4" x1="321.55" y1="149" x2="451.46" y2="74"/><text class="cls-5" transform="translate(456.16 84.68)">OH</text><text class="cls-5" transform="translate(170.19 571.28)">NH</text><text class="cls-5" transform="translate(248.96 592.6) scale(0.58)">2</text><g id="_Répétition_radiale_" data-name="&lt;Répétition radiale&gt;"><line class="cls-6" x1="192.5" y1="91.08" x2="305.73" y2="156.45"/></g><g id="_Répétition_radiale_2" data-name="&lt;Répétition radiale&gt;"><line class="cls-6" x1="305.88" y1="292" x2="192.65" y2="357.37"/></g><g id="_Répétition_radiale_3" data-name="&lt;Répétition radiale&gt;"><line class="cls-6" x1="75.19" y1="289.73" x2="75.19" y2="158.98"/></g><polyline class="cls-7" points="191.19 268.03 191.19 224.27 229.09 202.39 191.19 224.27 153.29 202.39"/></g><g id="text"><text class="cls-8" transform="translate(447.04 392.62) scale(0.58 0.58)">Game Engine</text><line class="cls-9" x1="447.04" y1="285.55" x2="776.62" y2="285.55"/><line class="cls-9" x1="811.86" y1="285.55" x2="1168.22" y2="285.55"/><text class="cls-10" transform="translate(447.04 270.43) scale(0.58)">Aminophenol</text></g><g id="cube"><polygon class="cls-11" points="150.79 200.94 150.79 247.59 191.19 270.91 191.19 224.27 150.79 200.94"/><polygon class="cls-12" points="191.19 177.62 231.59 200.94 191.19 224.27 150.79 200.94 191.19 177.62"/><polygon class="cls-13" points="231.59 247.59 231.59 200.94 191.19 224.27 191.19 270.91 231.59 247.59"/></g></svg>