<svg id="logo" xmlns="http://www.w3.org/2000/svg" viewBox="0 0 640 640"><defs><style>.cls-1{fill:#0c0816;}.cls-2,.cls-6,.cls-7{fill:none;}.cls-2,.cls-4,.cls-6{stroke:#c2b0e9;}.cls-2,.cls-4,.cls-6,.cls-7{stroke-miterlimit:10;}.cls-2,.cls-4,.cls-7{stroke-width:5px;}.cls-3{fill:#ccc;}.cls-4,.cls-5,.cls-9{fill:#c2b0e9;}.cls-5{font-size:64px;font-family:FiraCode-Retina, Fira Code;}.cls-6{stroke-width:5px;}.cls-7{stroke:#ccc;}.cls-8{fill:#5f77ef;}.cls-10{fill:#b4e2f9;}</style></defs><rect id="background" class="cls-1" width="640" height="640"/><g id="logo-2" data-name="logo"><g id="molecule"><polygon class="cls-2" points="215.81 74.27 85.91 149.27 85.91 299.27 215.81 374.27 345.71 299.27 345.71 149.27 215.81 74.27"/><path class="cls-3" d="M215.81,270.91l-40.4-23.32V200.94l40.4-23.32,40.4,23.32v46.65Zm-35.4-26.21,35.4,20.44,35.4-20.44V203.83l-35.4-20.43-35.4,20.43Z"/><line class="cls-4" x1="215.81" y1="374.16" x2="215.81" y2="524.16"/><line class="cls-4" x1="346.17" y1="149" x2="476.08" y2="74"/><text class="cls-5" transform="translate(480.78 84.68)">OH</text><text class="cls-5" transform="translate(194.81 571.28)">NH</text><text class="cls-5" transform="translate(273.58 592.6) scale(0.58)">2</text><g id="_Répétition_radiale_" data-name="&lt;Répétition radiale&gt;"><line class="cls-6" x1="217.12" y1="91.08" x2="330.35" y2="156.45"/></g><g id="_Répétition_radiale_2" data-name="&lt;Répétition radiale&gt;"><line class="cls-6" x1="330.5" y1="292" x2="217.27" y2="357.37"/></g><g id="_Répétition_radiale_3" data-name="&lt;Répétition radiale&gt;"><line class="cls-6" x1="99.81" y1="289.73" x2="99.81" y2="158.98"/></g><polyline class="cls-7" points="215.81 268.03 215.81 224.27 253.71 202.39 215.81 224.27 177.91 202.39"/></g><g id="cube"><polygon class="cls-8" points="175.41 200.94 175.41 247.59 215.81 270.91 215.81 224.27 175.41 200.94"/><polygon class="cls-9" points="215.81 177.62 256.21 200.94 215.81 224.27 175.41 200.94 215.81 177.62"/><polygon class="cls-10" points="256.21 247.59 256.21 200.94 215.81 224.27 215.81 270.91 256.21 247.59"/></g></g></svg>